<svg xmlns="http://www.w3.org/2000/svg" xmlns:xlink="http://www.w3.org/1999/xlink" width="500" zoomAndPan="magnify" viewBox="0 0 375 374.999991" height="500" preserveAspectRatio="xMidYMid meet" version="1.0"><defs><clipPath id="2502be50bc"><path d="M 60.722656 44 L 314.277344 44 L 314.277344 331 L 60.722656 331 Z M 60.722656 44" clip-rule="nonzero"/></clipPath><clipPath id="7ac3a28289"><path d="M 200.464844 47.519531 L 301.3125 106.195312 C 309.339844 110.863281 314.277344 119.449219 314.277344 128.738281 L 314.277344 246.261719 C 314.277344 255.550781 309.339844 264.136719 301.3125 268.804688 L 200.464844 327.480469 C 192.449219 332.144531 182.550781 332.144531 174.535156 327.480469 L 73.6875 268.804688 C 65.660156 264.136719 60.722656 255.550781 60.722656 246.261719 L 60.722656 128.738281 C 60.722656 119.449219 65.660156 110.863281 73.6875 106.195312 L 174.535156 47.519531 C 182.550781 42.855469 192.449219 42.855469 200.464844 47.519531 Z M 200.464844 47.519531" clip-rule="nonzero"/></clipPath><clipPath id="cf41877d07"><path d="M 0.722656 0 L 254.277344 0 L 254.277344 287 L 0.722656 287 Z M 0.722656 0" clip-rule="nonzero"/></clipPath><clipPath id="9ae2b9ab11"><path d="M 140.464844 3.519531 L 241.3125 62.195312 C 249.339844 66.863281 254.277344 75.449219 254.277344 84.738281 L 254.277344 202.261719 C 254.277344 211.550781 249.339844 220.136719 241.3125 224.804688 L 140.464844 283.480469 C 132.449219 288.144531 122.550781 288.144531 114.535156 283.480469 L 13.6875 224.804688 C 5.660156 220.136719 0.722656 211.550781 0.722656 202.261719 L 0.722656 84.738281 C 0.722656 75.449219 5.660156 66.863281 13.6875 62.195312 L 114.535156 3.519531 C 122.550781 -1.144531 132.449219 -1.144531 140.464844 3.519531 Z M 140.464844 3.519531" clip-rule="nonzero"/></clipPath><clipPath id="4b98dfed3f"><rect x="0" width="255" y="0" height="287"/></clipPath><clipPath id="8c6c3fdefe"><path d="M 91.894531 148 L 282 148 L 282 248 L 91.894531 248 Z M 91.894531 148" clip-rule="nonzero"/></clipPath></defs><rect x="-37.5" width="450" fill="#ffffff" y="-37.499999" height="449.999989" fill-opacity="1"/><rect x="-37.5" width="450" fill="#ffffff" y="-37.499999" height="449.999989" fill-opacity="1"/><g clip-path="url(#2502be50bc)"><g clip-path="url(#7ac3a28289)"><g transform="matrix(1, 0, 0, 1, 60, 44)"><g clip-path="url(#4b98dfed3f)"><g clip-path="url(#cf41877d07)"><g clip-path="url(#9ae2b9ab11)"><path fill="#11ad33" d="M 0.722656 -4.023438 L 254.277344 -4.023438 L 254.277344 291.132812 L 0.722656 291.132812 Z M 0.722656 -4.023438" fill-opacity="1" fill-rule="nonzero"/></g></g></g></g></g></g><g clip-path="url(#8c6c3fdefe)"><path fill="#ffffff" d="M 280.863281 159.511719 C 273.707031 149.867188 260.679688 145.894531 249.039062 150.652344 L 208.890625 167.074219 L 149.382812 191.417969 C 145.941406 192.824219 140.4375 192.652344 137.097656 191.027344 L 108.34375 177.066406 C 104.996094 175.441406 99.386719 174.957031 95.8125 175.980469 C 95.8125 175.980469 94.632812 176.316406 93.179688 176.734375 C 91.726562 177.152344 91.585938 178.585938 92.851562 179.945312 L 122.222656 211.246094 C 129.851562 219.378906 144.40625 222.550781 154.734375 218.328125 L 193.925781 202.292969 L 182.128906 245.097656 C 181.640625 246.886719 182.628906 247.761719 184.351562 247.054688 L 187.582031 245.742188 C 194.464844 242.929688 203.167969 235.503906 207.054688 229.132812 L 233.167969 186.226562 L 277.921875 167.921875 C 281.359375 166.515625 283.070312 162.503906 280.863281 159.511719 Z M 280.863281 159.511719" fill-opacity="1" fill-rule="nonzero"/></g><path fill="#ffffff" d="M 177.9375 172.460938 L 205.382812 161.238281 L 184.246094 151.980469 C 176.722656 148.679688 164.996094 148.167969 156.433594 150.53125 C 154.640625 151.023438 154.398438 152.578125 155.820312 153.777344 Z M 177.9375 172.460938" fill-opacity="1" fill-rule="nonzero"/></svg>